<?xml version="1.0" encoding="UTF-8" standalone="no"?>
<svg width="16px" height="16px" viewBox="0 0 16 16" version="1.1" xmlns="http://www.w3.org/2000/svg" xmlns:xlink="http://www.w3.org/1999/xlink" xmlns:sketch="http://www.bohemiancoding.com/sketch/ns">
    <!-- Generator: Sketch 3.3.1 (12002) - http://www.bohemiancoding.com/sketch -->
    <title>Group</title>
    <desc>Created with Sketch.</desc>
    <defs></defs>
    <g id="Page-1" stroke="none" stroke-width="1" fill="none" fill-rule="evenodd" sketch:type="MSPage">
        <g id="Group-Copy" sketch:type="MSLayerGroup" transform="translate(-175.000000, -35.000000)" fill="#8D99AE">
            <g id="power-copy" transform="translate(175.000000, 35.000000)" sketch:type="MSShapeGroup">
                <g id="Group">
                    <path d="M8,8 C7.36785714,8 6.85714286,7.48928571 6.85714286,6.85714286 L6.85714286,1.14285714 C6.85714286,0.510714286 7.36785714,0 8,0 C8.63214286,0 9.14285714,0.510714286 9.14285714,1.14285714 L9.14285714,6.85714286 C9.14285714,7.48928571 8.63214286,8 8,8 L8,8 Z" id="Shape"></path>
                    <path d="M12.3928571,1.31428571 L12.3928571,1.31428571 C12.2142857,1.20714286 12.0071429,1.14285714 11.7857143,1.14285714 C11.1535714,1.14285714 10.6428571,1.65357143 10.6428571,2.28571429 C10.6428571,2.50714286 10.7071429,2.71428571 10.8142857,2.88928571 C10.8857143,3.00357143 10.9785714,3.10714286 11.0857143,3.18928571 C11.1285714,3.22142857 11.1714286,3.25 11.2178571,3.27857143 C11.5071429,3.47857143 11.7821429,3.70357143 12.0392857,3.96071429 C13.1214286,5.03928571 13.7142857,6.475 13.7142857,8 C13.7142857,9.525 13.1214286,10.9607143 12.0392857,12.0392857 C10.9607143,13.1214286 9.525,13.7142857 8,13.7142857 C6.475,13.7142857 5.03928571,13.1214286 3.96071429,12.0392857 C2.87857143,10.9607143 2.28571429,9.525 2.28571429,8 C2.28571429,6.475 2.87857143,5.03928571 3.96071429,3.96071429 C4.21428571,3.70714286 4.48928571,3.47857143 4.77857143,3.28214286 C4.82857143,3.25357143 4.87142857,3.225 4.91785714,3.18928571 C5.025,3.10714286 5.11428571,3.00714286 5.18571429,2.89285714 C5.29642857,2.71785714 5.35714286,2.51071429 5.35714286,2.28928571 C5.35714286,1.65714286 4.84642857,1.14642857 4.21428571,1.14642857 C3.99285714,1.14642857 3.78571429,1.21071429 3.61071429,1.31785714 L3.60714286,1.31428571 C1.43571429,2.74285714 0,5.20357143 0,8 C0,12.4178571 3.58214286,16 8,16 C12.4178571,16 16,12.4178571 16,8 C16,5.20357143 14.5642857,2.74285714 12.3928571,1.31428571 L12.3928571,1.31428571 Z" id="Shape"></path>
                </g>
            </g>
        </g>
    </g>
</svg>